# xmcd CD database file
#
# Track frame offsets:
#	150
#	21025
#	40237
#	63300
#	82275
#	110165
#	132135
#	153122
#	176790
#	196150
#	219962
#	237437
#
# Disc length: 3446 seconds
#
# Revision: 2
# Processed by: cddbd v1.5.2PL0 Copyright (c) Steve Scherf et al.
# Submitted via: CDex 1.70beta2
#
DISCID=a20d740c
DTITLE=Kenny G - Paradise
DYEAR=2002
DGENRE=Jazz
TTITLE0=ブラジル
TTITLE1=パラダイス
TTITLE2=マリブ・ドリームス
TTITLE3=ワン・モア・タイム(Feat. シャンテ・ムーア)
TTITLE4=スパニッシュ・ナイツ
TTITLE5=シーサイド・ジャム
TTITLE6=オーシャン・ブリーズ
TTITLE7=フォーリング・イン・ザ・ムーンライト
TTITLE8=オール・ザ・ウェイ(Feat. ブライアン・マックナイト)
TTITLE9=ミッドナイト・マジック
TTITLE10=ピース
TTITLE11=ハーモニー
EXTD=YEAR: 2002
EXTT0=
EXTT1=
EXTT2=
EXTT3=
EXTT4=
EXTT5=
EXTT6=
EXTT7=
EXTT8=
EXTT9=
EXTT10=
EXTT11=
PLAYORDER=
